<svg width="223" height="71" viewBox="0 0 223 71" fill="none" xmlns="http://www.w3.org/2000/svg">
<circle cx="23.5" cy="35.5" r="23.5" fill="#C06014"/>
<path d="M72.496 22C75.2267 22 77.3173 22.9387 78.768 24.816C80.2187 26.6507 80.944 29.2747 80.944 32.688V54H75.504V33.456C75.504 29.1893 74.1387 27.056 71.408 27.056C70.2133 27.056 68.976 27.5253 67.696 28.464C66.4587 29.4027 65.3707 30.6827 64.432 32.304V54H58.992V33.456C58.992 29.1893 57.6267 27.056 54.896 27.056C53.7013 27.056 52.464 27.5253 51.184 28.464C49.9467 29.4027 48.8587 30.6827 47.92 32.304V54H42.48V22.768H47.6V27.44C48.7093 25.6907 49.9893 24.3467 51.44 23.408C52.8907 22.4693 54.4053 22 55.984 22C57.9467 22 59.5893 22.512 60.912 23.536C62.2347 24.5173 63.1947 25.968 63.792 27.888C64.944 25.968 66.2667 24.5173 67.76 23.536C69.2533 22.512 70.832 22 72.496 22ZM99.4535 22C103.123 22 105.79 22.832 107.454 24.496C109.16 26.1173 110.014 28.72 110.014 32.304V54H104.83V49.008C102.355 52.848 99.5602 54.768 96.4455 54.768C93.9708 54.768 91.9868 53.9147 90.4935 52.208C89.0428 50.5013 88.3175 48.176 88.3175 45.232V43.44C88.3175 40.88 89.1922 38.768 90.9415 37.104C92.6908 35.3973 95.0375 34.544 97.9815 34.544C99.6028 34.544 101.8 34.8213 104.574 35.376V31.856C104.574 30.0213 104.147 28.6987 103.294 27.888C102.483 27.0773 101.203 26.672 99.4535 26.672C97.4055 26.672 94.5255 26.992 90.8135 27.632V22.96C94.8242 22.32 97.7042 22 99.4535 22ZM99.3255 38.768C97.5335 38.768 96.1682 39.2373 95.2295 40.176C94.2908 41.1147 93.8215 42.4373 93.8215 44.144V44.848C93.8215 46.4267 94.1842 47.664 94.9095 48.56C95.6348 49.456 96.5522 49.904 97.6615 49.904C98.8135 49.904 99.9868 49.4133 101.182 48.432C102.419 47.408 103.55 45.9787 104.574 44.144V39.216C102.952 38.9173 101.203 38.768 99.3255 38.768ZM132.3 22C132.897 22 133.366 22.0427 133.708 22.128V28.272C133.068 28.144 132.236 28.08 131.212 28.08C128.225 28.08 125.857 29.5733 124.108 32.56V54H118.668V22.768H123.788V27.44C124.94 25.6907 126.22 24.3467 127.628 23.408C129.078 22.4693 130.636 22 132.3 22ZM147.38 22.768H155.7V27.248H147.38V45.552C147.38 47.1733 147.7 48.3467 148.34 49.072C149.023 49.7547 150.068 50.096 151.476 50.096C153.268 50.096 155.017 49.8827 156.724 49.456L156.852 54C154.975 54.512 153.268 54.768 151.732 54.768C148.319 54.768 145.823 54.0213 144.244 52.528C142.708 50.992 141.94 48.5173 141.94 45.104V27.248H137.46V22.768H141.94L142.964 14.448H147.38V22.768ZM186.014 22.768L171.678 65.84H166.238L170.334 54H168.286L159.39 22.768H165.342L172.062 50.096L180.382 22.768H186.014Z" fill="white"/>
<path d="M24.296 13.312C26.6 13.312 29.608 13.6533 33.32 14.336L33.192 19.136C29.6933 18.4533 26.728 18.112 24.296 18.112C21.8213 18.112 20.0293 18.6027 18.92 19.584C17.8533 20.5653 17.32 22.0587 17.32 24.064V25.728C17.32 26.7947 17.448 27.648 17.704 28.288C18.0027 28.8853 18.5147 29.4187 19.24 29.888C19.9653 30.3147 21.0533 30.7627 22.504 31.232L28.456 33.216C31.3147 34.1973 33.32 35.4987 34.472 37.12C35.6667 38.7413 36.264 41.1093 36.264 44.224V45.44C36.264 49.2373 35.1547 52.0747 32.936 53.952C30.76 55.8293 27.176 56.768 22.184 56.768C19.752 56.768 16.6373 56.3413 12.84 55.488L12.968 50.56C16.5093 51.4133 19.5387 51.84 22.056 51.84C25.256 51.84 27.5173 51.3707 28.84 50.432C30.1627 49.4507 30.824 47.936 30.824 45.888V43.776C30.824 42.2827 30.4827 41.152 29.8 40.384C29.16 39.5733 28.008 38.8907 26.344 38.336L19.752 36.16C16.808 35.1787 14.76 33.92 13.608 32.384C12.456 30.8053 11.88 28.4373 11.88 25.28V24.576C11.88 20.864 12.8613 18.0693 14.824 16.192C16.8293 14.272 19.9867 13.312 24.296 13.312Z" fill="white"/>
</svg>
